<svg xmlns="http://www.w3.org/2000/svg" viewBox="0 0 881.48 426.6"><defs><style>.cls-1{fill:none;}.cls-2{fill:#fdc60a;}.cls-3{fill:#fff;}</style></defs><g id="Camada_2" data-name="Camada 2"><g id="Camada_1-2" data-name="Camada 1"><rect class="cls-1" width="881.48" height="426.6"/><path class="cls-2" d="M240.6,214.77H87.69l38.87-65.15,37.58-61.93,37.58,61.92Zm-145.8-4H233.5l-35.24-59L164.14,95.47,130,151.7Z"/><path class="cls-2" d="M203,193.61H125.25l19.2-34.07,19.69-32.46,19.67,32.4Zm-70.89-4h64l-15.82-28.06-16.18-26.66-16.21,26.71Z"/><path class="cls-2" d="M164.14,254.82,126.57,192.9,87.69,127.74H240.6l-38.87,65.14Zm-69.34-123,35.23,59L164.14,247l34.13-56.24,35.23-59Z"/><rect class="cls-2" x="162.13" y="93.08" width="4.04" height="78.71"/><rect class="cls-2" x="85.88" y="190.25" width="83.62" height="4.04" transform="translate(-77.79 87.16) rotate(-29.32)"/><rect class="cls-2" x="198.58" y="150.46" width="4.04" height="83.62" transform="translate(-65.28 272.98) rotate(-60.67)"/><path class="cls-3" d="M304.86,119.83h4.57v90.53H362.7v4.44H304.86Z"/><path class="cls-3" d="M381.4,183.19a31,31,0,0,0,3.5,15.2,24,24,0,0,0,9.62,9.69,28.44,28.44,0,0,0,13.92,3.36,29.16,29.16,0,0,0,14.13-3.36,24.43,24.43,0,0,0,9.75-9.69,30.54,30.54,0,0,0,3.56-15.2V119.83h4.44v63.76q0,10.36-4.23,17.56a28.3,28.3,0,0,1-11.44,11,34.44,34.44,0,0,1-16.21,3.77,34,34,0,0,1-16.14-3.77,27.9,27.9,0,0,1-11.3-11q-4.17-7.2-4.17-17.56V119.83h4.57Z"/><path class="cls-3" d="M582.11,214.8v-95h22.6q13.59,0,23.27,4.37a43.76,43.76,0,0,1,15.68,11.44,46.68,46.68,0,0,1,8.81,15.47,52,52,0,0,1,2.82,16.61,48.39,48.39,0,0,1-3.76,19.44,45.25,45.25,0,0,1-25,24.35,46.55,46.55,0,0,1-17.42,3.29Zm4.58-4.44h21a46.47,46.47,0,0,0,16.68-3,39.49,39.49,0,0,0,22.87-22.06,45.46,45.46,0,0,0,3.37-17.89,46.88,46.88,0,0,0-2.69-15.6,41.38,41.38,0,0,0-8.28-13.93A38.92,38.92,0,0,0,625.36,128q-8.67-3.63-20.51-3.63H586.69Z"/><path class="cls-3" d="M672.38,119.83H730v4.44H677v40.49h47.76v4.3H677v41.3h54.89v4.44H672.38Z"/><path class="cls-3" d="M463.35,210.36l66.7-90.53H455.51v4.44h66.28c-2,2.76-4.19,5.65-6.47,8.74q-4,5.38-8.27,11.17L498.24,156q-4.51,6-9.15,12.3T480,180.77q-4.44,6.18-8.75,12.11l-8.34,11.43q-4,5.52-7.53,10.49h78.43v-4.44Z"/><path class="cls-3" d="M232.42,238.56h63.22v12.51H245.46v29.59h44.8v12.65h-44.8v30h52.07v12.51H232.42Z"/><path class="cls-3" d="M304.79,238.56H369.5v12.51H343.4v84.75h-13V251.07H304.79Z"/><path class="cls-3" d="M408.1,234.52h-.8l-42.38,101.3h85.7Zm-25.66,90,24.84-61,24,61Z"/><path class="cls-3" d="M446,238.56h64.71v12.51h-26.1v84.75h-13V251.07H446Z"/><path class="cls-3" d="M592,335.82l-24.36-39.18a26.74,26.74,0,0,0,8.82-6.63A27.74,27.74,0,0,0,582,280a38.57,38.57,0,0,0,1.68-11.3A30.37,30.37,0,0,0,581,255.77a26.74,26.74,0,0,0-7.27-9.48,31.75,31.75,0,0,0-10.89-5.78,45.73,45.73,0,0,0-13.66-1.95H523.39v97.26h13.05V300h14.4c1.07,0,2.06-.06,3.07-.11l23,35.9Zm-41.43-48.43H536.44V251.07h15.07a19.52,19.52,0,0,1,8.68,1.75,16.82,16.82,0,0,1,5.78,4.5,18.4,18.4,0,0,1,3.23,5.85,19.63,19.63,0,0,1,1,6.06,21,21,0,0,1-.94,6,17.79,17.79,0,0,1-3.1,5.85,15.65,15.65,0,0,1-6,4.51A23.17,23.17,0,0,1,550.57,287.39Z"/><path class="cls-3" d="M595.77,287.25a48.41,48.41,0,0,1,3.83-19.1,50.94,50.94,0,0,1,26.5-26.77,49.23,49.23,0,0,1,38.41,0,51.39,51.39,0,0,1,26.77,26.77,49.41,49.41,0,0,1,0,38.48,50.23,50.23,0,0,1-26.63,26.43,48.6,48.6,0,0,1-19.24,3.84,49.09,49.09,0,0,1-49.64-49.65Zm13.45,0A37.41,37.41,0,0,0,612,301.72a36.38,36.38,0,0,0,7.8,11.77,37.38,37.38,0,0,0,11.57,8,36.28,36.28,0,0,0,28.38,0,36.41,36.41,0,0,0,11.44-7.93,37.58,37.58,0,0,0,7.73-11.78,36.65,36.65,0,0,0,2.83-14.39,37.05,37.05,0,0,0-2.83-14.53A39.36,39.36,0,0,0,671.17,261a35,35,0,0,0-11.57-8.07A35.37,35.37,0,0,0,645.41,250a35,35,0,0,0-14.33,3,36.08,36.08,0,0,0-19.17,20A38.4,38.4,0,0,0,609.22,287.25Z"/><polygon class="cls-3" points="780.74 238.56 781 309.08 709.71 235.6 709.04 235.6 709.04 335.82 722.09 335.82 721.83 266.47 793.25 338.91 793.79 338.91 793.79 238.56 780.74 238.56"/><polygon class="cls-3" points="212.37 235.46 163.74 303.47 115.92 235.46 115.78 235.46 115.78 335.82 128.43 335.82 128.43 274.65 163.54 323.58 163.81 323.58 199.46 272.99 199.46 335.82 212.51 335.82 212.51 235.46 212.37 235.46"/></g></g></svg>